<svg xmlns="http://www.w3.org/2000/svg" width="17" height="13.842" viewBox="0 0 17 13.842">
  <g id="photo-camera-interface-symbol-for-button_1_" data-name="photo-camera-interface-symbol-for-button (1)" transform="translate(0 -3.36)">
    <path id="Path_336" data-name="Path 336" d="M11.242,11.428A2.741,2.741,0,1,1,8.5,8.686,2.745,2.745,0,0,1,11.242,11.428ZM17,7.535v7.787a1.88,1.88,0,0,1-1.88,1.88H1.88A1.88,1.88,0,0,1,0,15.322V7.535a1.88,1.88,0,0,1,1.88-1.88H4.192V5A1.645,1.645,0,0,1,5.837,3.36h5.326A1.645,1.645,0,0,1,12.808,5v.65H15.12A1.881,1.881,0,0,1,17,7.535Zm-4.348,3.893A4.151,4.151,0,1,0,8.5,15.58,4.156,4.156,0,0,0,12.652,11.428Z" fill="#fff"/>
  </g>
</svg>
