<svg xmlns="http://www.w3.org/2000/svg" width="22.003" height="27.569" viewBox="0 0 22.003 27.569">
  <g id="on-call-svgrepo-com" transform="translate(-94.747 -57.62)">
    <path id="Path_602" data-name="Path 602" d="M105.978,119.96c-.572.692-2.155-1.116-3.224-2.539s-2.11-3.607-1.263-3.9c1.572-.548.652-4.234-.6-6.032s-2.564-3.053-4.451-1.739c-.473.33-4.686,4.494,2.274,14.488s12.326,7.488,12.8,7.159c1.887-1.314,1.166-2.978-.087-4.778S107.038,118.675,105.978,119.96Z" transform="translate(0 -42.72)"/>
    <path id="Path_603" data-name="Path 603" d="M190.731,117.994a3.191,3.191,0,0,1,.571,4.749,1.009,1.009,0,0,0,1.508,1.342,5.208,5.208,0,0,0-.93-7.751,1.009,1.009,0,1,0-1.148,1.66Z" transform="translate(-85.789 -52.555)"/>
    <path id="Path_604" data-name="Path 604" d="M220.009,88.586c.172.144.337.3.491.449a7.363,7.363,0,0,1,.152,10.31,1.009,1.009,0,1,0,1.468,1.385,9.42,9.42,0,0,0-.193-13.123c-.2-.2-.4-.386-.621-.568a1.009,1.009,0,1,0-1.3,1.547Z" transform="translate(-112.142 -26.202)"/>
    <path id="Path_605" data-name="Path 605" d="M250.512,57.875a1.009,1.009,0,1,0-1.342,1.508c.183.163.349.319.506.476a11.664,11.664,0,0,1,.159,16.251,1.009,1.009,0,0,0,1.455,1.4,13.624,13.624,0,0,0-.187-19.078C250.917,58.246,250.724,58.064,250.512,57.875Z" transform="translate(-138.344 0)"/>
  </g>
</svg>
