<svg xmlns="http://www.w3.org/2000/svg" width="15" height="15" viewBox="0 0 15 15">
  <path id="Icon_awesome-headphones-alt" data-name="Icon awesome-headphones-alt" d="M4.688,10.821H4.219a2.025,2.025,0,0,0-1.875,2.147V15.1A2.025,2.025,0,0,0,4.219,17.25h.469a1.013,1.013,0,0,0,.937-1.073V11.895A1.012,1.012,0,0,0,4.688,10.821Zm6.094,0h-.469a1.012,1.012,0,0,0-.937,1.073v4.282a1.013,1.013,0,0,0,.937,1.073h.469A2.025,2.025,0,0,0,12.656,15.1V12.968a2.025,2.025,0,0,0-1.875-2.147ZM7.5,2.25C3.308,2.25.134,6.239,0,10.821v3.75a.505.505,0,0,0,.469.536H.938a.505.505,0,0,0,.469-.536v-3.75c0-3.839,2.734-6.958,6.094-6.958s6.094,3.119,6.094,6.958v3.75a.505.505,0,0,0,.469.536h.469A.505.505,0,0,0,15,14.571v-3.75C14.866,6.239,11.692,2.25,7.5,2.25Z" transform="translate(0 -2.25)" fill="#7552e3"/>
</svg>
