<svg xmlns="http://www.w3.org/2000/svg" width="19.437" height="19.437" viewBox="0 0 19.437 19.437">
  <g id="Icon_ionic-ios-chatbubbles" data-name="Icon ionic-ios-chatbubbles" transform="translate(-3.375 -3.375)">
    <path id="Path_3415" data-name="Path 3415" d="M22.881,16.112a1.132,1.132,0,0,1,.154-.57,1.573,1.573,0,0,1,.1-.145,7.571,7.571,0,0,0,1.29-4.219,7.948,7.948,0,0,0-8.116-7.8A8.06,8.06,0,0,0,8.35,9.584a7.508,7.508,0,0,0-.173,1.6,7.926,7.926,0,0,0,7.99,7.9,9.622,9.622,0,0,0,2.205-.36c.528-.145,1.051-.336,1.187-.388a1.235,1.235,0,0,1,.435-.079,1.215,1.215,0,0,1,.472.093l2.649.939a.632.632,0,0,0,.182.047.372.372,0,0,0,.374-.374.6.6,0,0,0-.023-.126Z" transform="translate(-1.611)" fill="#999"/>
    <path id="Path_3416" data-name="Path 3416" d="M16.013,22.667c-.168.047-.383.1-.617.15a8.624,8.624,0,0,1-1.589.21,7.926,7.926,0,0,1-7.99-7.9,8.833,8.833,0,0,1,.07-1c.028-.2.061-.4.107-.6s.1-.421.164-.626l-.374.332a6.953,6.953,0,0,0-2.411,5.228,6.876,6.876,0,0,0,1.159,3.831c.107.164.168.29.15.374s-.556,2.9-.556,2.9a.375.375,0,0,0,.126.36.381.381,0,0,0,.238.084.335.335,0,0,0,.135-.028l2.621-1.033a.73.73,0,0,1,.266-.051.737.737,0,0,1,.294.061,7.864,7.864,0,0,0,2.836.561,7.338,7.338,0,0,0,5.611-2.574s.15-.206.322-.449C16.406,22.555,16.21,22.616,16.013,22.667Z" transform="translate(0 -3.196)" fill="#999"/>
  </g>
</svg>
