<svg xmlns="http://www.w3.org/2000/svg" width="21.471" height="20.933" viewBox="0 0 21.471 20.933">
  <g id="XMLID_819_" transform="translate(0 -5.783)">
    <g id="Group_10612" data-name="Group 10612" transform="translate(0 5.783)">
      <g id="Group_10611" data-name="Group 10611" transform="translate(0 0)">
        <path id="Path_598" data-name="Path 598" d="M30.487,229.834a3.509,3.509,0,0,1-4.192,0,3.509,3.509,0,0,1-4.192,0,3.509,3.509,0,0,1-4.192,0,3.506,3.506,0,0,1-3.79.258v9.777a.47.47,0,0,0,.47.47h7.4v-7.271a.47.47,0,0,1,.47-.47h3.469a.47.47,0,0,1,.47.47v7.271h7.4a.47.47,0,0,0,.47-.47v-9.777a3.506,3.506,0,0,1-3.79-.258ZM15.6,233.572a.672.672,0,0,1,.672-.672h3.43a.672.672,0,0,1,.672.672v.417H15.6Zm4.775,3.935h0a.672.672,0,0,1-.672.672h-3.43a.672.672,0,0,1-.672-.672v-2.128h4.775Zm12.4,0a.672.672,0,0,1-.672.672H28.68a.672.672,0,0,1-.672-.672v-2.128h4.775Zm0-3.935v.417H28.008v-.417a.672.672,0,0,1,.672-.672h3.43A.672.672,0,0,1,32.783,233.572Z" transform="translate(-13.463 -219.406)" fill="#7552e3"/>
        <path id="Path_599" data-name="Path 599" d="M2.351,15.747a2.35,2.35,0,0,0,2.1-1.287,2.35,2.35,0,0,0,4.192,0,2.35,2.35,0,0,0,4.192,0,2.35,2.35,0,0,0,4.192,0A2.351,2.351,0,0,0,21.471,13.4c0-.427-1.749-6.546-1.749-6.546a1.439,1.439,0,0,0-1.39-1.068H3.184A1.439,1.439,0,0,0,1.8,6.842C1.72,7.118,0,12.959,0,13.4A2.351,2.351,0,0,0,2.351,15.747Z" transform="translate(0 -5.783)" fill="#7552e3"/>
      </g>
    </g>
  </g>
</svg>
