<svg id="Icon_feather-shopping-cart" data-name="Icon feather-shopping-cart" xmlns="http://www.w3.org/2000/svg" width="26.345" height="25.248" viewBox="0 0 26.345 25.248">
  <path id="Path_3" data-name="Path 3" d="M12.7,28.5a2.2,2.2,0,1,1-2.2,2.2A2.2,2.2,0,0,1,12.7,28.5Z" transform="translate(-2.816 -7.643)" fill="#666"/>
  <path id="Path_4" data-name="Path 4" d="M29.2,28.5A2.2,2.2,0,1,1,27,30.7,2.2,2.2,0,0,1,29.2,28.5Z" transform="translate(-7.241 -7.643)" fill="#666"/>
  <path id="Path_5" data-name="Path 5" d="M21.339,18.662h-10.7A3.29,3.29,0,0,1,7.354,16.01L5.52,6.849Q5.509,6.8,5.5,6.757L4.589,2.2H1.1A1.1,1.1,0,1,1,1.1,0H5.489A1.1,1.1,0,0,1,6.565.882l.922,4.606H25.248a1.1,1.1,0,0,1,1.078,1.3L24.57,16l0,.008A3.29,3.29,0,0,1,21.339,18.662Zm-10.713-2.2H21.338a1.1,1.1,0,0,0,1.076-.88l1.507-7.9H7.926l1.581,7.9a1.1,1.1,0,0,0,1.1.885Z" transform="translate(0 0)" fill="#666"/>
</svg>
