<svg xmlns="http://www.w3.org/2000/svg" width="44.038" height="42.934" viewBox="0 0 44.038 42.934">
  <g id="XMLID_819_" transform="translate(0 -5.783)">
    <g id="Group_10612" data-name="Group 10612" transform="translate(0 5.783)">
      <g id="Group_10611" data-name="Group 10611" transform="translate(0 0)">
        <path id="Path_598" data-name="Path 598" d="M47.689,229.834a7.2,7.2,0,0,1-8.6,0,7.2,7.2,0,0,1-8.6,0,7.2,7.2,0,0,1-8.6,0,7.19,7.19,0,0,1-7.773.529v20.052a.963.963,0,0,0,.963.963H30.271V236.466a.963.963,0,0,1,.963-.963h7.114a.963.963,0,0,1,.963.963v14.913H54.5a.963.963,0,0,0,.963-.963V230.363a7.19,7.19,0,0,1-7.773-.529ZM17.165,237.5a1.379,1.379,0,0,1,1.379-1.379h7.035a1.379,1.379,0,0,1,1.379,1.379v.854H17.165Zm9.793,8.071h0a1.379,1.379,0,0,1-1.379,1.379H18.544a1.379,1.379,0,0,1-1.379-1.379v-4.364h9.793Zm25.44,0a1.379,1.379,0,0,1-1.379,1.379H43.984a1.379,1.379,0,0,1-1.379-1.379v-4.364H52.4Zm0-8.071v.854H42.6V237.5a1.379,1.379,0,0,1,1.379-1.379h7.035A1.379,1.379,0,0,1,52.4,237.5Z" transform="translate(-12.772 -208.445)" fill="#fff"/>
        <path id="Path_599" data-name="Path 599" d="M4.821,26.219a4.82,4.82,0,0,0,4.3-2.64,4.821,4.821,0,0,0,8.6,0,4.821,4.821,0,0,0,8.6,0,4.821,4.821,0,0,0,8.6,0A4.821,4.821,0,0,0,44.038,21.4c0-.875-3.586-13.425-3.586-13.425A2.952,2.952,0,0,0,37.6,5.783H6.53A2.951,2.951,0,0,0,3.683,7.955C3.528,8.521,0,20.5,0,21.4A4.821,4.821,0,0,0,4.821,26.219Z" transform="translate(0 -5.783)" fill="#fff"/>
      </g>
    </g>
  </g>
</svg>
